<?xml version="1.0" ?><svg viewBox="0 0 512 512" xmlns="http://www.w3.org/2000/svg"><g id="DJ"><path d="M420.0327,92.1606H91.9673a30.1868,30.1868,0,0,0-30.1528,30.1529v267.373a30.1868,30.1868,0,0,0,30.1528,30.1529H420.0327a30.1868,30.1868,0,0,0,30.1528-30.1529V122.3135A30.1868,30.1868,0,0,0,420.0327,92.1606Zm14.1528,297.5259a14.1691,14.1691,0,0,1-14.1528,14.1529H91.9673a14.1691,14.1691,0,0,1-14.1528-14.1529V122.3135a14.1691,14.1691,0,0,1,14.1528-14.1529H420.0327a14.1691,14.1691,0,0,1,14.1528,14.1529Z"/><path d="M222.4155,142.82A113.18,113.18,0,1,0,335.5957,256,113.3076,113.3076,0,0,0,222.4155,142.82ZM182.2573,256a40.1583,40.1583,0,1,1,40.1583,40.1583A40.1583,40.1583,0,0,1,182.2573,256Zm124.2412,0a84.1779,84.1779,0,0,1-84.083,84.083,8,8,0,0,1,0-16A68.16,68.16,0,0,0,290.4985,256a8,8,0,1,1,16,0Z"/><circle cx="222.4156" cy="256" r="12.3917"/><path d="M381.7114,150.8354a31.2863,31.2863,0,0,0-8,61.5325V312.5093L342.58,354.4258a8,8,0,1,0,12.8447,9.54l32.709-44.0405a8,8,0,0,0,1.5776-4.77V212.3679a31.2863,31.2863,0,0,0-8-61.5325Zm0,46.5733a15.2867,15.2867,0,1,1,15.2866-15.2866A15.3036,15.3036,0,0,1,381.7114,197.4087Z"/></g></svg>